<svg width="720" height="420" viewBox="0 0 720 420" fill="none" xmlns="http://www.w3.org/2000/svg" role="img" aria-labelledby="title desc">
  <title id="title">Maintenance in progress</title>
  <desc id="desc">Stylized illustration with gears and wrench showing website maintenance.</desc>
  <defs>
    <linearGradient id="bg" x1="80" y1="40" x2="640" y2="380" gradientUnits="userSpaceOnUse">
      <stop stop-color="#1A1535"/>
      <stop offset="0.55" stop-color="#141124"/>
      <stop offset="1" stop-color="#0F0D1A"/>
    </linearGradient>
    <linearGradient id="accent" x1="220" y1="100" x2="560" y2="330" gradientUnits="userSpaceOnUse">
      <stop stop-color="#7C5CFF"/>
      <stop offset="0.52" stop-color="#5B8DEF"/>
      <stop offset="1" stop-color="#E879F9"/>
    </linearGradient>
    <radialGradient id="glow" cx="0" cy="0" r="1" gradientUnits="userSpaceOnUse" gradientTransform="translate(365 214) rotate(90) scale(180 260)">
      <stop stop-color="#7C5CFF" stop-opacity="0.24"/>
      <stop offset="1" stop-color="#7C5CFF" stop-opacity="0"/>
    </radialGradient>
  </defs>

  <rect x="30" y="26" width="660" height="368" rx="36" fill="url(#bg)"/>
  <rect x="30.5" y="26.5" width="659" height="367" rx="35.5" stroke="white" stroke-opacity="0.12"/>
  <ellipse cx="365" cy="214" rx="260" ry="180" fill="url(#glow)"/>

  <g opacity="0.22" stroke="white" stroke-opacity="0.35">
    <line x1="110" y1="96" x2="612" y2="96"/>
    <line x1="110" y1="334" x2="612" y2="334"/>
  </g>

  <g fill="url(#accent)">
    <circle cx="228" cy="164" r="44"/>
    <circle cx="228" cy="164" r="20" fill="#141124"/>
  </g>
  <g transform="translate(228 164)" stroke="url(#accent)" stroke-width="12" stroke-linecap="round">
    <line x1="-54" y1="0" x2="-38" y2="0"/>
    <line x1="54" y1="0" x2="38" y2="0"/>
    <line x1="0" y1="-54" x2="0" y2="-38"/>
    <line x1="0" y1="54" x2="0" y2="38"/>
    <line x1="-38" y1="-38" x2="-26" y2="-26"/>
    <line x1="38" y1="38" x2="26" y2="26"/>
    <line x1="-38" y1="38" x2="-26" y2="26"/>
    <line x1="38" y1="-38" x2="26" y2="-26"/>
  </g>

  <g fill="url(#accent)">
    <circle cx="488" cy="262" r="54"/>
    <circle cx="488" cy="262" r="24" fill="#141124"/>
  </g>
  <g transform="translate(488 262)" stroke="url(#accent)" stroke-width="14" stroke-linecap="round">
    <line x1="-66" y1="0" x2="-46" y2="0"/>
    <line x1="66" y1="0" x2="46" y2="0"/>
    <line x1="0" y1="-66" x2="0" y2="-46"/>
    <line x1="0" y1="66" x2="0" y2="46"/>
    <line x1="-46" y1="-46" x2="-32" y2="-32"/>
    <line x1="46" y1="46" x2="32" y2="32"/>
    <line x1="-46" y1="46" x2="-32" y2="32"/>
    <line x1="46" y1="-46" x2="32" y2="-32"/>
  </g>

  <g transform="translate(340 208) rotate(-27)">
    <rect x="-24" y="-88" width="48" height="176" rx="24" fill="#D7DAEE" fill-opacity="0.9"/>
    <rect x="-13" y="-62" width="26" height="124" rx="13" fill="#B9BFE0"/>
    <path d="M-24 -88C-10 -112 10 -112 24 -88V-62H-24V-88Z" fill="#E7EAFB"/>
    <path d="M-24 88H24V102C24 116 12 128 0 128C-12 128 -24 116 -24 102V88Z" fill="url(#accent)"/>
    <circle cx="0" cy="103" r="6" fill="#141124"/>
  </g>

  <g fill="white" fill-opacity="0.72" font-family="Plus Jakarta Sans, Arial, sans-serif" text-anchor="middle">
    <text x="360" y="78" font-size="18" font-weight="600" letter-spacing="0.08em">MAINTENANCE MODE</text>
    <text x="360" y="354" font-size="15" fill-opacity="0.55">Applying updates and polishing systems</text>
  </g>
</svg>
